# 3ds Max Wavefront OBJ Exporter v0.97b - (c)2007 guruware
# File Created: 26.01.2019 00:07:50

mtllib spk_rug.mtl

#
# object Cylinder001
#

v  2.9158 -0.0000 0.2611
v  2.7076 -0.0000 0.7654
v  2.3680 -0.0000 1.2175
v  1.9049 -0.0000 1.5867
v  1.1413 -0.0000 1.8478
v  0.4119 -0.0000 1.9829
v  -0.4158 0.0000 1.9829
v  -1.1475 0.0000 1.8478
v  -1.9131 0.0000 1.5867
v  -2.3776 0.0000 1.2175
v  -2.7182 0.0000 0.7654
v  -2.9269 0.0000 0.2611
v  -2.9269 0.0000 -0.2611
v  -2.7182 0.0000 -0.7654
v  -2.3776 0.0000 -1.2175
v  -1.9131 0.0000 -1.5867
v  -1.1475 0.0000 -1.8478
v  -0.4158 0.0000 -1.9829
v  0.4119 -0.0000 -1.9829
v  1.1413 -0.0000 -1.8478
v  1.9049 -0.0000 -1.5867
v  2.3680 -0.0000 -1.2175
v  2.7076 -0.0000 -0.7654
v  2.9158 -0.0000 -0.2611
v  2.7076 0.0500 -0.7654
v  2.9158 0.0500 -0.2611
v  2.3680 0.0500 -1.2175
v  1.9049 0.0500 -1.5867
v  1.1413 0.0500 -1.8478
v  0.4119 0.0500 -1.9829
v  -0.4158 0.0500 -1.9829
v  -1.1475 0.0500 -1.8478
v  -1.9131 0.0500 -1.5867
v  -2.3776 0.0500 -1.2175
v  -2.7182 0.0500 -0.7654
v  -2.9269 0.0500 -0.2611
v  -2.9269 0.0500 0.2611
v  -2.7182 0.0500 0.7654
v  -2.3776 0.0500 1.2175
v  -1.9131 0.0500 1.5867
v  -1.1475 0.0500 1.8478
v  -0.4158 0.0500 1.9829
v  0.4119 0.0500 1.9829
v  1.1413 0.0500 1.8478
v  1.9049 0.0500 1.5867
v  2.3680 0.0500 1.2175
v  2.7076 0.0500 0.7654
v  2.9158 0.0500 0.2611
v  2.6408 0.1000 -0.7465
v  2.8438 0.1000 -0.2546
v  2.3095 0.1000 -1.1875
v  1.8579 0.1000 -1.5476
v  1.1130 0.1000 -1.8022
v  0.4016 0.1000 -1.9340
v  -0.4057 0.1000 -1.9340
v  -1.1193 0.1000 -1.8022
v  -1.8661 0.1000 -1.5476
v  -2.3191 0.1000 -1.1875
v  -2.6513 0.1000 -0.7465
v  -2.8548 0.1000 -0.2546
v  -2.8548 0.1000 0.2546
v  -2.6513 0.1000 0.7465
v  -2.3191 0.1000 1.1875
v  -1.8661 0.1000 1.5476
v  -1.1193 0.1000 1.8022
v  -0.4057 0.1000 1.9340
v  0.4016 0.1000 1.9340
v  1.1130 0.1000 1.8022
v  1.8579 0.1000 1.5476
v  2.3095 0.1000 1.1875
v  2.6408 0.1000 0.7465
v  2.8438 0.1000 0.2546
# 72 vertices

vn 0.7318 -0.6658 0.1451
vn 0.6373 -0.6798 0.3630
vn 0.5261 -0.6797 0.5111
vn 0.3564 -0.6706 0.6506
vn 0.1832 -0.6911 0.6992
vn 0.0665 -0.6870 0.7236
vn -0.0663 -0.6871 0.7235
vn -0.1828 -0.6911 0.6993
vn -0.3557 -0.6706 0.6509
vn -0.5253 -0.6797 0.5119
vn -0.6369 -0.6798 0.3638
vn -0.7319 -0.6657 0.1454
vn -0.7318 -0.6658 -0.1454
vn -0.6369 -0.6798 -0.3638
vn -0.5253 -0.6797 -0.5119
vn -0.3557 -0.6706 -0.6509
vn -0.1828 -0.6911 -0.6993
vn -0.0663 -0.6871 -0.7235
vn 0.0665 -0.6871 -0.7235
vn 0.1832 -0.6911 -0.6992
vn 0.3564 -0.6706 -0.6506
vn 0.5260 -0.6798 -0.5111
vn 0.6373 -0.6798 -0.3630
vn 0.7318 -0.6658 -0.1451
vn 0.7841 0.4364 -0.4413
vn 0.8808 0.4412 -0.1717
vn 0.6541 0.4224 -0.6274
vn 0.4492 0.3987 -0.7996
vn 0.2377 0.3825 -0.8928
vn 0.0865 0.3734 -0.9236
vn -0.0862 0.3734 -0.9237
vn -0.2371 0.3825 -0.8930
vn -0.4483 0.3986 -0.8001
vn -0.6533 0.4224 -0.6284
vn -0.7835 0.4365 -0.4422
vn -0.8807 0.4413 -0.1720
vn -0.8807 0.4413 0.1721
vn -0.7835 0.4365 0.4422
vn -0.6533 0.4224 0.6284
vn -0.4483 0.3986 0.8001
vn -0.2371 0.3825 0.8930
vn -0.0862 0.3734 0.9237
vn 0.0865 0.3734 0.9236
vn 0.2377 0.3825 0.8928
vn 0.4492 0.3986 0.7996
vn 0.6541 0.4224 0.6274
vn 0.7841 0.4364 0.4413
vn 0.8808 0.4412 0.1717
vn 0.2900 0.9415 -0.1719
vn 0.3256 0.9430 -0.0689
vn 0.2491 0.9350 -0.2523
vn 0.1747 0.9212 -0.3478
vn 0.0955 0.9196 -0.3810
vn 0.0349 0.9150 -0.4019
vn -0.0348 0.9150 -0.4019
vn -0.0953 0.9196 -0.3811
vn -0.1744 0.9211 -0.3480
vn -0.2488 0.9350 -0.2528
vn -0.2897 0.9415 -0.1723
vn -0.3255 0.9430 -0.0690
vn -0.3255 0.9430 0.0690
vn -0.2897 0.9415 0.1723
vn -0.2488 0.9350 0.2528
vn -0.1744 0.9211 0.3480
vn -0.0953 0.9196 0.3811
vn -0.0348 0.9150 0.4019
vn 0.0349 0.9150 0.4019
vn 0.0955 0.9196 0.3810
vn 0.1747 0.9212 0.3478
vn 0.2491 0.9350 0.2523
vn 0.2900 0.9415 0.1719
vn 0.3256 0.9430 0.0689
# 72 vertex normals

vt 1.0000 0.4342 0.0000
vt 0.9644 0.3070 0.0000
vt 0.9062 0.1930 0.0000
vt 0.8270 0.0999 0.0000
vt 0.6963 0.0341 0.0000
vt 0.5714 0.0000 0.0000
vt 0.4298 0.0000 0.0000
vt 0.3046 0.0341 0.0000
vt 0.1735 0.0999 0.0000
vt 0.0940 0.1930 0.0000
vt 0.0357 0.3070 0.0000
vt 0.0000 0.4342 0.0000
vt 0.0000 0.5658 0.0000
vt 0.0357 0.6930 0.0000
vt 0.0940 0.8070 0.0000
vt 0.1735 0.9001 0.0000
vt 0.3046 0.9659 0.0000
vt 0.4298 1.0000 0.0000
vt 0.5714 1.0000 0.0000
vt 0.6963 0.9659 0.0000
vt 0.8270 0.9001 0.0000
vt 0.9062 0.8070 0.0000
vt 0.9644 0.6930 0.0000
vt 1.0000 0.5658 0.0000
vt 0.9644 0.6930 0.5000
vt 1.0000 0.5658 0.5000
vt 0.9062 0.8070 0.5000
vt 0.8270 0.9001 0.5000
vt 0.6963 0.9659 0.5000
vt 0.5714 1.0000 0.5000
vt 0.4298 1.0000 0.5000
vt 0.3046 0.9659 0.5000
vt 0.1735 0.9001 0.5000
vt 0.0940 0.8070 0.5000
vt 0.0357 0.6930 0.5000
vt 0.0000 0.5658 0.5000
vt 0.0000 0.4342 0.5000
vt 0.0357 0.3070 0.5000
vt 0.0940 0.1930 0.5000
vt 0.1735 0.0999 0.5000
vt 0.3046 0.0341 0.5000
vt 0.4298 0.0000 0.5000
vt 0.5714 0.0000 0.5000
vt 0.6963 0.0341 0.5000
vt 0.8270 0.0999 0.5000
vt 0.9062 0.1930 0.5000
vt 0.9644 0.3070 0.5000
vt 1.0000 0.4342 0.5000
vt 0.9529 0.6882 1.0000
vt 0.9877 0.5642 1.0000
vt 0.8962 0.7994 1.0000
vt 0.8189 0.8902 1.0000
vt 0.6915 0.9544 1.0000
vt 0.5697 0.9877 1.0000
vt 0.4315 0.9877 1.0000
vt 0.3094 0.9544 1.0000
vt 0.1816 0.8902 1.0000
vt 0.1040 0.7994 1.0000
vt 0.0472 0.6882 1.0000
vt 0.0123 0.5642 1.0000
vt 0.0123 0.4358 1.0000
vt 0.0472 0.3118 1.0000
vt 0.1040 0.2006 1.0000
vt 0.1816 0.1098 1.0000
vt 0.3094 0.0456 1.0000
vt 0.4315 0.0123 1.0000
vt 0.5697 0.0123 1.0000
vt 0.6915 0.0456 1.0000
vt 0.8189 0.1098 1.0000
vt 0.8962 0.2006 1.0000
vt 0.9529 0.3118 1.0000
vt 0.9877 0.4358 1.0000
# 72 texture coords

o Cylinder001
g Cylinder001
usemtl Material__75
s 1
f 1/1/1 2/2/2 3/3/3 4/4/4 5/5/5 6/6/6 7/7/7 8/8/8 9/9/9 10/10/10 11/11/11 12/12/12 13/13/13 14/14/14 15/15/15 16/16/16 17/17/17 18/18/18 19/19/19 20/20/20 21/21/21 22/22/22 23/23/23 24/24/24 
s 8
f 24/24/24 23/23/23 25/25/25 26/26/26 
f 23/23/23 22/22/22 27/27/27 25/25/25 
f 22/22/22 21/21/21 28/28/28 27/27/27 
f 21/21/21 20/20/20 29/29/29 28/28/28 
f 20/20/20 19/19/19 30/30/30 29/29/29 
f 19/19/19 18/18/18 31/31/31 30/30/30 
f 18/18/18 17/17/17 32/32/32 31/31/31 
f 17/17/17 16/16/16 33/33/33 32/32/32 
f 16/16/16 15/15/15 34/34/34 33/33/33 
f 15/15/15 14/14/14 35/35/35 34/34/34 
f 14/14/14 13/13/13 36/36/36 35/35/35 
f 13/13/13 12/12/12 37/37/37 36/36/36 
f 12/12/12 11/11/11 38/38/38 37/37/37 
f 11/11/11 10/10/10 39/39/39 38/38/38 
f 10/10/10 9/9/9 40/40/40 39/39/39 
f 9/9/9 8/8/8 41/41/41 40/40/40 
f 8/8/8 7/7/7 42/42/42 41/41/41 
f 7/7/7 6/6/6 43/43/43 42/42/42 
f 6/6/6 5/5/5 44/44/44 43/43/43 
f 5/5/5 4/4/4 45/45/45 44/44/44 
f 4/4/4 3/3/3 46/46/46 45/45/45 
f 3/3/3 2/2/2 47/47/47 46/46/46 
f 2/2/2 1/1/1 48/48/48 47/47/47 
f 1/1/1 24/24/24 26/26/26 48/48/48 
f 26/26/26 25/25/25 49/49/49 50/50/50 
f 25/25/25 27/27/27 51/51/51 49/49/49 
f 27/27/27 28/28/28 52/52/52 51/51/51 
f 28/28/28 29/29/29 53/53/53 52/52/52 
f 29/29/29 30/30/30 54/54/54 53/53/53 
f 30/30/30 31/31/31 55/55/55 54/54/54 
f 31/31/31 32/32/32 56/56/56 55/55/55 
f 32/32/32 33/33/33 57/57/57 56/56/56 
f 33/33/33 34/34/34 58/58/58 57/57/57 
f 34/34/34 35/35/35 59/59/59 58/58/58 
f 35/35/35 36/36/36 60/60/60 59/59/59 
f 36/36/36 37/37/37 61/61/61 60/60/60 
f 37/37/37 38/38/38 62/62/62 61/61/61 
f 38/38/38 39/39/39 63/63/63 62/62/62 
f 39/39/39 40/40/40 64/64/64 63/63/63 
f 40/40/40 41/41/41 65/65/65 64/64/64 
f 41/41/41 42/42/42 66/66/66 65/65/65 
f 42/42/42 43/43/43 67/67/67 66/66/66 
f 43/43/43 44/44/44 68/68/68 67/67/67 
f 44/44/44 45/45/45 69/69/69 68/68/68 
f 45/45/45 46/46/46 70/70/70 69/69/69 
f 46/46/46 47/47/47 71/71/71 70/70/70 
f 47/47/47 48/48/48 72/72/72 71/71/71 
f 48/48/48 26/26/26 50/50/50 72/72/72 
s 1
f 72/72/72 50/50/50 49/49/49 51/51/51 52/52/52 53/53/53 54/54/54 55/55/55 56/56/56 57/57/57 58/58/58 59/59/59 60/60/60 61/61/61 62/62/62 63/63/63 64/64/64 65/65/65 66/66/66 67/67/67 68/68/68 69/69/69 70/70/70 71/71/71 
# 50 polygons

