# 3ds Max Wavefront OBJ Exporter v0.97b - (c)2007 guruware
# File Created: 25.01.2019 22:55:02

mtllib spk_room1.mtl

#
# object Box003
#

v  -10.0000 0.0000 10.0000
v  10.0000 0.0000 10.0000
v  10.0000 0.0000 -10.0000
v  -10.0000 0.0000 -10.0000
v  -10.0000 10.0000 10.0000
v  -10.0000 10.0000 -10.0000
v  10.0000 10.0000 -10.0000
v  10.0000 10.0000 10.0000
# 8 vertices

vn 0.5774 0.5774 -0.5774
vn -0.5774 0.5774 -0.5774
vn -0.5774 0.5774 0.5774
vn 0.5774 0.5774 0.5774
vn 0.5774 -0.5774 -0.5774
vn 0.5774 -0.5774 0.5774
vn -0.5774 -0.5774 0.5774
vn -0.5774 -0.5774 -0.5774
# 8 vertex normals

vt 3.0000 0.0000 0.0000
vt 0.0000 0.0000 0.0000
vt 0.0000 3.0000 0.0000
vt 3.0000 3.0000 0.0000
vt 0.0000 1.0000 0.0000
vt 1.0000 1.0000 0.0000
vt 1.0000 0.0000 0.0000
# 7 texture coords

o Box003
g Box003
usemtl Material__49
s 2
f 1/1/1 2/2/2 3/3/3 4/4/4 
usemtl Material__50
s 4
f 5/2/5 6/5/6 7/6/7 8/7/8 
usemtl Material__61
s 8
f 1/2/1 5/5/5 8/6/8 2/7/2 
s 16
f 2/2/2 8/5/8 7/6/7 3/7/3 
s 32
f 3/2/3 7/5/7 6/6/6 4/7/4 
s 64
f 4/2/4 6/5/6 5/6/5 1/7/1 
# 6 polygons

