# 3ds Max Wavefront OBJ Exporter v0.97b - (c)2007 guruware
# File Created: 26.01.2019 00:40:32

mtllib spk_doorframe.mtl

#
# object Box005
#

v  0.3750 7.7500 1.8556
v  0.3750 7.7500 -1.8556
v  -0.3750 7.7500 -1.8556
v  -0.3750 7.7500 1.8556
v  -0.3750 0.0000 2.2500
v  0.3750 0.0000 2.2500
v  0.3750 7.3625 2.2500
v  -0.3750 7.3625 2.2500
v  0.3750 0.0000 -2.2500
v  -0.3750 0.0000 -2.2500
v  -0.3750 7.3625 -2.2500
v  0.3750 7.3625 -2.2500
v  0.3750 7.7500 2.2500
v  -0.3750 7.7500 2.2500
v  0.3750 7.3625 1.8556
v  0.3750 7.3625 -1.8556
v  -0.3750 7.7500 -2.2500
v  0.3750 7.7500 -2.2500
v  -0.3750 7.3625 -1.8556
v  -0.3750 7.3625 1.8556
v  -0.3750 0.0000 -1.8556
v  0.3750 0.0000 -1.8556
v  0.3750 0.0000 1.8556
v  -0.3750 0.0000 1.8556
# 24 vertices

vn 0.7071 0.7071 -0.0000
vn -0.7071 0.7071 -0.0000
vn -0.5774 -0.5774 0.5774
vn 0.5774 -0.5774 0.5774
vn 0.7071 0.0000 0.7071
vn -0.7071 0.0000 0.7071
vn 0.5774 -0.5774 -0.5774
vn -0.5774 -0.5774 -0.5774
vn -0.7071 0.0000 -0.7071
vn 0.7071 0.0000 -0.7071
vn 0.5774 0.5774 0.5774
vn -0.5774 0.5774 0.5774
vn 0.9045 -0.3015 -0.3015
vn 0.9045 -0.3015 0.3015
vn -0.5774 0.5774 -0.5774
vn 0.5774 0.5774 -0.5774
vn -0.9045 -0.3015 0.3015
vn -0.9045 -0.3015 -0.3015
# 18 vertex normals

vt 1.0000 0.0876 0.0000
vt 1.0000 0.9124 0.0000
vt 0.0000 0.9124 0.0000
vt 0.0000 0.0876 0.0000
vt 0.0000 0.0000 0.0000
vt 1.0000 0.0000 0.0000
vt 1.0000 0.9500 0.0000
vt 0.0000 0.9500 0.0000
vt 1.0000 1.0000 0.0000
vt 0.0000 1.0000 0.0000
vt 0.9124 1.0000 0.0000
vt 0.0876 1.0000 0.0000
vt 0.0876 0.9500 0.0000
vt 0.9124 0.9500 0.0000
vt 0.9124 0.0000 0.0000
vt 0.0876 0.0000 0.0000
# 16 texture coords

o Box005
g Box005
usemtl wire_177028149
s 4
f 1/1/1 2/2/1 3/3/2 4/4/2 
s 8
f 5/5/3 6/6/4 7/7/5 8/8/6 
s 32
f 9/5/7 10/6/8 11/7/9 12/8/10 
s 8
f 7/7/5 13/9/11 14/10/12 8/8/6 
s 16
f 2/11/1 1/12/1 15/13/13 16/14/14 
s 32
f 11/7/9 17/9/15 18/10/16 12/8/10 
s 64
f 4/11/2 3/12/2 19/13/17 20/14/18 
s 2
f 21/2/3 10/9/8 9/10/7 22/3/4 
f 23/4/7 6/5/4 5/6/3 24/1/8 
s 4
f 2/2/1 18/9/16 17/10/15 3/3/2 
f 4/4/2 14/5/12 13/6/11 1/1/1 
s 16
f 22/15/4 9/6/7 12/7/10 16/14/14 
f 15/13/13 7/8/5 6/5/4 23/16/7 
s 64
f 24/15/8 5/6/3 8/7/6 20/14/18 
f 19/13/17 11/8/9 10/5/8 21/16/3 
s 16
f 1/12/1 13/10/11 7/8/5 15/13/13 
f 16/14/14 12/7/10 18/9/16 2/11/1 
s 64
f 3/12/2 17/10/15 11/8/9 19/13/17 
f 20/14/18 8/7/6 14/9/12 4/11/2 
s 1
f 20/10/18 19/9/17 16/5/14 15/6/13 
s off
f 22/3/4 16/14/14 19/9/17 21/16/3 
f 24/1/8 20/14/18 15/6/13 23/16/7 
# 22 polygons

