# 3ds Max Wavefront OBJ Exporter v0.97b - (c)2007 guruware
# File Created: 26.01.2019 05:44:22

mtllib spk_Ghost.mtl

#
# object Sphere001
#

v  0.0000 15.0000 -0.0000
v  0.0000 14.6985 -1.7101
v  -0.5849 14.6985 -1.6070
v  -1.0992 14.6985 -1.3100
v  -1.4810 14.6985 -0.8551
v  -1.6841 14.6985 -0.2970
v  -1.6841 14.6985 0.2970
v  -1.4810 14.6985 0.8551
v  -1.0992 14.6985 1.3100
v  -0.5849 14.6985 1.6070
v  0.0000 14.6985 1.7101
v  0.0000 13.8302 -3.2139
v  -1.0992 13.8302 -3.0201
v  -2.0659 13.8302 -2.4620
v  -2.7834 13.8302 -1.6070
v  -3.1651 13.8302 -0.5581
v  -3.1651 13.8302 0.5581
v  -2.7834 13.8302 1.6070
v  -2.0659 13.8302 2.4620
v  -1.0992 13.8302 3.0201
v  0.0000 13.8302 3.2139
v  0.0000 12.5000 -4.3301
v  -1.4810 12.5000 -4.0690
v  -2.7834 12.5000 -3.3171
v  -3.7500 12.5000 -2.1651
v  -4.2643 12.5000 -0.7519
v  -4.2643 12.5000 0.7519
v  -3.7500 12.5000 2.1651
v  -2.7834 12.5000 3.3171
v  -1.4810 12.5000 4.0690
v  0.0000 12.5000 4.3301
v  0.0000 10.8682 -4.9240
v  -1.6841 10.8682 -4.6271
v  -3.1651 10.8682 -3.7720
v  -4.2643 10.8682 -2.4620
v  -4.8492 10.8682 -0.8551
v  -4.8492 10.8682 0.8550
v  -4.2643 10.8682 2.4620
v  -3.1651 10.8682 3.7720
v  -1.6841 10.8682 4.6271
v  0.0000 10.8682 4.9240
v  0.0000 7.5788 -4.4293
v  0.0000 5.9342 -4.2561
v  -1.4617 5.9341 -3.9994
v  -1.5203 7.5788 -4.1622
v  -2.7472 5.9341 -3.2604
v  -2.8572 7.5788 -3.3931
v  -3.7012 5.9341 -2.1281
v  -3.8495 7.5788 -2.2147
v  -4.2139 5.9341 -0.7391
v  -4.7690 7.5901 -0.5873
v  -4.5820 7.5788 -0.0000
v  -4.7690 7.5900 0.5873
v  -4.2139 5.9341 0.7391
v  -3.7056 5.9341 2.1280
v  -3.8495 7.5788 2.2147
v  -2.7504 5.9341 3.2604
v  -2.8572 7.5788 3.3931
v  -1.4635 5.9342 3.9994
v  -1.5203 7.5789 4.1622
v  0.0000 5.9341 4.2561
v  0.0000 7.5788 4.4293
v  -1.7318 0.0000 4.8775
v  -2.1574 1.0000 1.2423
v  -1.5408 1.0000 1.8309
v  -3.1651 1.0000 3.7720
v  -4.3850 0.0000 2.5952
v  -2.3583 1.0000 0.4139
v  0.0000 1.0000 4.9240
v  -0.8412 1.0000 2.3412
v  -2.4522 1.0000 -0.4333
v  -4.8492 1.0000 0.8550
v  -4.9865 0.0000 -0.9013
v  -2.0736 1.0000 -1.1970
v  -1.6010 1.0000 -1.9064
v  -4.2643 1.0000 -2.4620
v  -3.2547 0.0000 -3.9761
v  -0.8201 1.0000 -2.2481
v  -0.0020 1.0000 -2.4877
v  -1.6841 1.0000 -4.6271
v  0.0000 0.5000 -5.0573
v  -1.6841 1.0000 4.6271
v  -3.1651 1.0000 -3.7720
v  -4.8492 1.0000 -0.8551
v  -4.2643 1.0000 2.4620
v  0.0000 2.6448 -4.4293
v  -1.5203 2.6446 -4.1622
v  0.0000 4.2895 -4.2561
v  -1.4617 4.2893 -3.9994
v  -1.6841 9.2235 -4.6271
v  0.0000 9.2235 -4.9240
v  -2.8572 2.6447 -3.3931
v  -2.7472 4.2894 -3.2604
v  -3.1651 9.2235 -3.7720
v  -3.8495 2.6446 -2.2147
v  -3.7012 4.2893 -2.1281
v  -4.2643 9.2235 -2.4620
v  -4.3775 2.6447 -0.7691
v  -4.2089 4.2894 -0.7391
v  -5.2621 9.1315 -0.8821
v  -4.9144 8.2472 -0.9809
v  -4.3775 2.6446 0.7691
v  -4.2089 4.2893 0.7391
v  -5.2621 9.1315 0.8821
v  -5.4471 9.3111 -0.0000
v  -6.1742 6.5268 0.7032
v  -6.5368 6.1847 -0.0000
v  -5.6502 6.0031 -0.0000
v  -3.8495 2.6446 2.2147
v  -3.7012 4.2894 2.1280
v  -4.2643 9.2235 2.4620
v  -4.9144 8.2472 0.9809
v  -2.8572 2.6446 3.3931
v  -2.7472 4.2893 3.2604
v  -3.1651 9.2235 3.7720
v  -1.5203 2.6449 4.1622
v  -1.4617 4.2895 3.9994
v  -1.6841 9.2236 4.6271
v  0.0000 2.6446 4.4293
v  0.0000 4.2893 4.2561
v  0.0000 9.2235 4.9240
v  -5.4206 6.5756 0.5308
v  -6.6982 7.0505 -0.0000
v  -6.2558 7.4104 0.5901
v  -6.1742 6.5268 -0.7032
v  -6.2558 7.4104 -0.5901
v  -5.4206 6.5756 -0.5308
v  0.8030 1.0000 -2.2521
v  0.5849 14.6985 -1.6070
v  1.0992 14.6985 -1.3100
v  1.4810 14.6985 -0.8551
v  1.6841 14.6985 -0.2970
v  1.6841 14.6985 0.2970
v  1.4810 14.6985 0.8551
v  1.0992 14.6985 1.3100
v  0.5849 14.6985 1.6070
v  1.0992 13.8302 -3.0201
v  2.0659 13.8302 -2.4620
v  2.7834 13.8302 -1.6070
v  3.1651 13.8302 -0.5581
v  3.1651 13.8302 0.5581
v  2.7834 13.8302 1.6070
v  2.0659 13.8302 2.4620
v  1.0992 13.8302 3.0201
v  1.4810 12.5000 -4.0690
v  2.7834 12.5000 -3.3171
v  3.7500 12.5000 -2.1651
v  4.2643 12.5000 -0.7519
v  4.2643 12.5000 0.7519
v  3.7500 12.5000 2.1651
v  2.7834 12.5000 3.3171
v  1.4810 12.5000 4.0690
v  1.6841 10.8682 -4.6271
v  3.1651 10.8682 -3.7720
v  4.2643 10.8682 -2.4620
v  4.8492 10.8682 -0.8551
v  4.8492 10.8682 0.8550
v  4.2643 10.8682 2.4620
v  3.1651 10.8682 3.7720
v  1.6841 10.8682 4.6271
v  1.5203 7.5788 -4.1622
v  1.4617 5.9341 -3.9994
v  2.8572 7.5788 -3.3931
v  2.7472 5.9341 -3.2604
v  3.8495 7.5788 -2.2147
v  3.7012 5.9341 -2.1281
v  4.7690 7.5901 -0.5873
v  4.2139 5.9341 -0.7391
v  4.5820 7.5788 -0.0000
v  4.7690 7.5900 0.5873
v  3.8495 7.5788 2.2147
v  3.7056 5.9341 2.1280
v  4.2139 5.9341 0.7391
v  2.8572 7.5788 3.3931
v  2.7504 5.9341 3.2604
v  1.5203 7.5789 4.1622
v  1.4635 5.9342 3.9994
v  1.7318 0.0000 4.8775
v  0.0234 1.0000 2.3908
v  0.8734 1.0000 2.3272
v  3.1651 1.0000 3.7720
v  1.5544 1.0000 1.8145
v  4.3850 0.0000 2.5952
v  2.1646 1.0000 1.2193
v  4.8492 1.0000 0.8550
v  2.3567 1.0000 0.3888
v  4.9865 0.0000 -0.9013
v  2.4416 1.0000 -0.4593
v  4.2643 1.0000 -2.4620
v  2.0549 1.0000 -1.2190
v  3.2547 0.0000 -3.9761
v  1.5747 1.0000 -1.9233
v  1.6841 1.0000 -4.6271
v  1.6841 1.0000 4.6271
v  3.1651 1.0000 -3.7720
v  4.8492 1.0000 -0.8551
v  4.2643 1.0000 2.4620
v  1.5203 2.6446 -4.1622
v  1.4617 4.2893 -3.9994
v  1.6841 9.2235 -4.6271
v  2.8572 2.6447 -3.3931
v  2.7472 4.2894 -3.2604
v  3.1651 9.2235 -3.7720
v  3.8495 2.6446 -2.2147
v  3.7012 4.2893 -2.1281
v  4.2643 9.2235 -2.4620
v  4.3775 2.6447 -0.7691
v  4.2089 4.2894 -0.7391
v  5.2621 9.1315 -0.8821
v  4.9144 8.2472 -0.9809
v  4.3775 2.6446 0.7691
v  4.2089 4.2893 0.7391
v  5.2621 9.1315 0.8821
v  5.4471 9.3111 -0.0000
v  6.1742 6.5268 0.7032
v  5.6502 6.0031 -0.0000
v  6.5368 6.1847 -0.0000
v  3.8495 2.6446 2.2147
v  3.7012 4.2894 2.1280
v  4.2643 9.2235 2.4620
v  4.9144 8.2472 0.9809
v  2.8572 2.6446 3.3931
v  2.7472 4.2893 3.2604
v  3.1651 9.2235 3.7720
v  1.5203 2.6449 4.1622
v  1.4617 4.2895 3.9994
v  1.6841 9.2236 4.6271
v  5.4206 6.5756 0.5308
v  6.2558 7.4104 0.5901
v  6.6982 7.0505 -0.0000
v  6.2558 7.4104 -0.5901
v  6.1742 6.5268 -0.7032
v  5.4206 6.5756 -0.5308
# 233 vertices

vn -0.0000 1.0000 0.0000
vn -0.0000 0.9334 -0.3588
vn -0.1227 0.9334 -0.3372
vn -0.2306 0.9334 -0.2749
vn -0.3107 0.9334 -0.1794
vn -0.3534 0.9334 -0.0623
vn -0.3534 0.9334 0.0623
vn -0.3107 0.9334 0.1794
vn -0.2306 0.9334 0.2749
vn -0.1227 0.9334 0.3372
vn 0.0000 0.9334 0.3588
vn -0.0000 0.7567 -0.6538
vn -0.2236 0.7567 -0.6144
vn -0.4203 0.7567 -0.5009
vn -0.5662 0.7567 -0.3269
vn -0.6439 0.7567 -0.1135
vn -0.6439 0.7567 0.1135
vn -0.5662 0.7567 0.3269
vn -0.4203 0.7567 0.5009
vn -0.2236 0.7567 0.6144
vn 0.0000 0.7567 0.6538
vn 0.0000 0.4919 -0.8707
vn -0.2978 0.4919 -0.8182
vn -0.5597 0.4919 -0.6670
vn -0.7540 0.4919 -0.4353
vn -0.8574 0.4919 -0.1512
vn -0.8575 0.4919 0.1512
vn -0.7540 0.4919 0.4353
vn -0.5597 0.4919 0.6670
vn -0.2978 0.4919 0.8182
vn -0.0000 0.4919 0.8707
vn 0.0000 0.1705 -0.9854
vn -0.3370 0.1705 -0.9259
vn -0.6334 0.1705 -0.7548
vn -0.8534 0.1705 -0.4927
vn -0.9332 0.3068 -0.1872
vn -0.9332 0.3068 0.1872
vn -0.8533 0.1705 0.4927
vn -0.6334 0.1705 0.7548
vn -0.3370 0.1705 0.9259
vn 0.0000 0.1705 0.9854
vn 0.0000 -0.1993 -0.9799
vn 0.0000 -0.0528 -0.9986
vn -0.3404 -0.0527 -0.9388
vn -0.3343 -0.1987 -0.9213
vn -0.6404 -0.0525 -0.7662
vn -0.6291 -0.1972 -0.7519
vn -0.8632 -0.0523 -0.5021
vn -0.7959 -0.2049 -0.5697
vn -0.9764 -0.1373 -0.1664
vn -0.2301 -0.6997 -0.6763
vn -0.3076 -0.9515 -0.0000
vn -0.2301 -0.6997 0.6763
vn -0.9767 -0.1374 0.1650
vn -0.8638 -0.0523 0.5011
vn -0.7961 -0.2038 0.5699
vn -0.6402 -0.0525 0.7665
vn -0.6291 -0.1966 0.7520
vn -0.3401 -0.0527 0.9389
vn -0.3343 -0.1985 0.9213
vn 0.0000 -0.0528 0.9986
vn 0.0000 -0.1993 0.9799
vn -0.1374 -0.7600 0.6352
vn -0.0094 -0.9987 -0.0498
vn 0.1344 -0.9791 -0.1524
vn -0.6393 -0.3620 0.6785
vn -0.4795 -0.7885 0.3851
vn 0.2072 -0.9778 -0.0309
vn -0.0604 -0.3544 0.9332
vn 0.0000 -1.0000 0.0000
vn 0.0251 -0.9987 -0.0450
vn -0.9229 -0.3694 0.1083
vn -0.6012 -0.7983 -0.0347
vn 0.1784 -0.9779 0.1092
vn 0.0491 -0.9986 -0.0184
vn -0.7747 -0.3642 -0.5169
vn -0.4490 -0.7732 -0.4479
vn 0.0646 -0.9792 0.1922
vn 0.0064 -0.9955 0.0948
vn -0.1942 -0.3801 -0.9043
vn -0.0351 -0.6691 -0.7423
vn -0.3318 0.2648 0.9054
vn -0.6256 0.2458 -0.7404
vn -0.9631 0.2097 -0.1686
vn -0.8455 0.2240 0.4848
vn 0.0000 0.1955 -0.9807
vn -0.3343 0.1987 -0.9213
vn 0.0000 0.0528 -0.9986
vn -0.3404 0.0527 -0.9388
vn -0.3384 -0.1428 -0.9301
vn 0.0000 -0.1433 -0.9897
vn -0.6291 0.1972 -0.7519
vn -0.6404 0.0525 -0.7662
vn -0.6361 -0.1416 -0.7585
vn -0.8487 0.1955 -0.4914
vn -0.8640 0.0523 -0.5008
vn -0.7971 -0.1368 -0.5881
vn -0.9659 0.1944 -0.1708
vn -0.9834 0.0506 -0.1741
vn -0.8475 0.1546 -0.5077
vn -0.5403 -0.2732 -0.7959
vn -0.9659 0.1944 0.1708
vn -0.9834 0.0506 0.1741
vn -0.8475 0.1546 0.5077
vn -0.9281 0.3724 0.0000
vn -0.3481 -0.4196 0.8383
vn -0.7156 -0.6985 -0.0000
vn 0.3204 -0.9473 -0.0000
vn -0.8487 0.1955 0.4914
vn -0.8640 0.0511 0.5009
vn -0.7971 -0.1368 0.5881
vn -0.5403 -0.2732 0.7959
vn -0.6291 0.1972 0.7519
vn -0.6404 0.0519 0.7663
vn -0.6361 -0.1416 0.7585
vn -0.3343 0.1987 0.9213
vn -0.3403 0.0525 0.9388
vn -0.3384 -0.1428 0.9301
vn 0.0000 0.1993 0.9799
vn -0.0000 0.0528 0.9986
vn 0.0000 -0.1433 0.9897
vn 0.5257 -0.5182 0.6746
vn -0.9940 0.1094 0.0000
vn -0.7020 0.2103 0.6804
vn -0.3481 -0.4196 -0.8383
vn -0.7020 0.2103 -0.6804
vn 0.5257 -0.5182 -0.6746
vn -0.0394 -0.9940 0.1022
vn 0.1227 0.9334 -0.3372
vn 0.2306 0.9334 -0.2749
vn 0.3107 0.9334 -0.1794
vn 0.3534 0.9334 -0.0623
vn 0.3534 0.9334 0.0623
vn 0.3107 0.9334 0.1794
vn 0.2306 0.9334 0.2749
vn 0.1227 0.9334 0.3372
vn 0.2236 0.7567 -0.6144
vn 0.4203 0.7567 -0.5009
vn 0.5662 0.7567 -0.3269
vn 0.6439 0.7567 -0.1135
vn 0.6439 0.7567 0.1135
vn 0.5662 0.7567 0.3269
vn 0.4203 0.7567 0.5009
vn 0.2236 0.7567 0.6144
vn 0.2978 0.4919 -0.8182
vn 0.5597 0.4919 -0.6670
vn 0.7540 0.4919 -0.4353
vn 0.8574 0.4919 -0.1512
vn 0.8575 0.4919 0.1512
vn 0.7540 0.4919 0.4353
vn 0.5597 0.4919 0.6670
vn 0.2978 0.4919 0.8182
vn 0.3370 0.1705 -0.9259
vn 0.6334 0.1705 -0.7548
vn 0.8534 0.1705 -0.4927
vn 0.9332 0.3068 -0.1872
vn 0.9332 0.3068 0.1872
vn 0.8533 0.1705 0.4927
vn 0.6334 0.1705 0.7548
vn 0.3370 0.1705 0.9259
vn 0.3343 -0.1987 -0.9213
vn 0.3404 -0.0527 -0.9388
vn 0.6291 -0.1972 -0.7519
vn 0.6404 -0.0525 -0.7662
vn 0.7959 -0.2049 -0.5697
vn 0.8632 -0.0523 -0.5021
vn 0.2301 -0.6997 -0.6763
vn 0.9764 -0.1373 -0.1664
vn 0.3076 -0.9515 -0.0000
vn 0.2301 -0.6997 0.6763
vn 0.7961 -0.2038 0.5699
vn 0.8638 -0.0523 0.5011
vn 0.9767 -0.1374 0.1650
vn 0.6291 -0.1966 0.7520
vn 0.6402 -0.0525 0.7665
vn 0.3343 -0.1985 0.9213
vn 0.3401 -0.0527 0.9389
vn 0.2378 -0.7605 0.6043
vn 0.0032 -0.9798 -0.1997
vn 0.0253 -0.9874 -0.1565
vn 0.5512 -0.3594 0.7530
vn -0.1292 -0.9790 -0.1580
vn 0.5387 -0.7887 0.2964
vn -0.0830 -0.9867 -0.1395
vn 0.9041 -0.3691 0.2155
vn -0.2046 -0.9781 -0.0390
vn 0.5851 -0.7985 -0.1413
vn -0.1568 -0.9862 -0.0541
vn 0.8295 -0.3677 -0.4204
vn -0.1785 -0.9789 0.0997
vn 0.3675 -0.7737 -0.5161
vn -0.1382 -0.9870 0.0826
vn 0.2764 -0.4282 -0.8604
vn 0.3318 0.2648 0.9054
vn 0.6256 0.2458 -0.7404
vn 0.9631 0.2097 -0.1686
vn 0.8455 0.2240 0.4848
vn 0.3343 0.1987 -0.9213
vn 0.3404 0.0527 -0.9388
vn 0.3384 -0.1428 -0.9301
vn 0.6291 0.1972 -0.7519
vn 0.6404 0.0525 -0.7662
vn 0.6361 -0.1416 -0.7585
vn 0.8487 0.1955 -0.4914
vn 0.8640 0.0523 -0.5008
vn 0.7971 -0.1368 -0.5881
vn 0.9659 0.1944 -0.1708
vn 0.9834 0.0506 -0.1741
vn 0.8475 0.1546 -0.5077
vn 0.5403 -0.2732 -0.7959
vn 0.9659 0.1944 0.1708
vn 0.9834 0.0506 0.1741
vn 0.8475 0.1546 0.5077
vn 0.9281 0.3724 0.0000
vn 0.3481 -0.4196 0.8383
vn -0.3204 -0.9473 -0.0000
vn 0.7156 -0.6985 -0.0000
vn 0.8487 0.1955 0.4914
vn 0.8640 0.0511 0.5009
vn 0.7971 -0.1368 0.5881
vn 0.5403 -0.2732 0.7959
vn 0.6291 0.1972 0.7519
vn 0.6404 0.0519 0.7663
vn 0.6361 -0.1416 0.7585
vn 0.3343 0.1987 0.9213
vn 0.3403 0.0525 0.9388
vn 0.3384 -0.1428 0.9301
vn -0.5257 -0.5182 0.6746
vn 0.7020 0.2103 0.6804
vn 0.9940 0.1094 0.0000
vn 0.7020 0.2103 -0.6804
vn 0.3481 -0.4196 -0.8383
vn -0.5257 -0.5182 -0.6746
# 233 vertex normals

vt 0.9964 0.0038 0.0000
vt 0.9964 0.0039 0.0000
vt 0.2988 0.9892 0.0000
vt 0.2283 0.8947 0.0000
vt 0.3103 0.8947 0.0000
vt 0.3533 0.9892 0.0000
vt 0.4031 0.8947 0.0000
vt 0.4303 0.9892 0.0000
vt 0.5085 0.8947 0.0000
vt 0.5085 0.9892 0.0000
vt 0.1899 0.7785 0.0000
vt 0.2832 0.7785 0.0000
vt 0.3886 0.7785 0.0000
vt 0.5085 0.7785 0.0000
vt 0.2212 0.5443 0.0000
vt 0.2323 0.4272 0.0000
vt 0.3127 0.4272 0.0000
vt 0.3051 0.5443 0.0000
vt 0.4043 0.4272 0.0000
vt 0.4003 0.5443 0.0000
vt 0.5085 0.4272 0.0000
vt 0.5085 0.5443 0.0000
vt 0.3886 0.0759 0.0000
vt 0.3852 0.0047 0.0000
vt 0.5085 0.0759 0.0000
vt 0.2832 0.0759 0.0000
vt 0.1899 0.0759 0.0000
vt 0.1994 0.0047 0.0000
vt 0.2212 0.1930 0.0000
vt 0.3051 0.1930 0.0000
vt 0.2323 0.3101 0.0000
vt 0.3129 0.3101 0.0000
vt 0.2832 0.6614 0.0000
vt 0.1899 0.6614 0.0000
vt 0.4003 0.1930 0.0000
vt 0.4044 0.3101 0.0000
vt 0.3886 0.6614 0.0000
vt 0.5085 0.1930 0.0000
vt 0.5085 0.3101 0.0000
vt 0.5085 0.6614 0.0000
vt 0.7075 0.9892 0.0000
vt 0.6531 0.9892 0.0000
vt 0.7069 0.8944 0.0000
vt 0.7889 0.8944 0.0000
vt 0.5868 0.9892 0.0000
vt 0.6140 0.8947 0.0000
vt 0.7339 0.7785 0.0000
vt 0.8271 0.7785 0.0000
vt 0.6284 0.7785 0.0000
vt 0.7958 0.5443 0.0000
vt 0.7119 0.5443 0.0000
vt 0.7043 0.4272 0.0000
vt 0.7847 0.4272 0.0000
vt 0.6168 0.5443 0.0000
vt 0.6127 0.4272 0.0000
vt 0.6284 0.0759 0.0000
vt 0.6318 0.0047 0.0000
vt 0.7339 0.0759 0.0000
vt 0.8271 0.0759 0.0000
vt 0.8176 0.0047 0.0000
vt 0.7959 0.1930 0.0000
vt 0.7120 0.1930 0.0000
vt 0.7847 0.3101 0.0000
vt 0.7041 0.3101 0.0000
vt 0.7339 0.6614 0.0000
vt 0.8271 0.6614 0.0000
vt 0.6168 0.1930 0.0000
vt 0.6126 0.3101 0.0000
vt 0.6284 0.6614 0.0000
# 69 texture coords

o Sphere001
g Sphere001
usemtl Material__32
s 1
f 1/1/1 2/1/2 3/1/3 
f 1/1/1 3/1/3 4/1/4 
f 1/1/1 4/1/4 5/1/5 
f 1/1/1 5/1/5 6/1/6 
f 1/1/1 6/1/6 7/1/7 
f 1/1/1 7/1/7 8/1/8 
f 1/1/1 8/1/8 9/1/9 
f 1/1/1 9/1/9 10/1/10 
f 1/1/1 10/1/10 11/1/11 
f 2/1/2 12/2/12 13/2/13 3/1/3 
f 3/1/3 13/2/13 14/2/14 4/1/4 
f 4/1/4 14/2/14 15/1/15 5/1/5 
f 5/1/5 15/1/15 16/1/16 6/1/6 
f 6/1/6 16/1/16 17/1/17 7/1/7 
f 7/1/7 17/1/17 18/1/18 8/1/8 
f 8/1/8 18/1/18 19/1/19 9/1/9 
f 9/1/9 19/1/19 20/1/20 10/1/10 
f 10/1/10 20/1/20 21/1/21 11/1/11 
f 12/1/12 22/1/22 23/1/23 13/1/13 
f 13/1/13 23/1/23 24/1/24 14/1/14 
f 14/1/14 24/1/24 25/1/25 15/1/15 
f 15/1/15 25/1/25 26/1/26 16/1/16 
f 16/1/16 26/1/26 27/1/27 17/1/17 
f 17/1/17 27/1/27 28/1/28 18/1/18 
f 18/3/18 28/4/28 29/5/29 19/6/19 
f 19/6/19 29/5/29 30/7/30 20/8/20 
f 20/8/20 30/7/30 31/9/31 21/10/21 
f 22/1/22 32/1/32 33/1/33 23/1/23 
f 23/1/23 33/1/33 34/1/34 24/1/24 
f 24/1/24 34/1/34 35/1/35 25/1/25 
f 25/1/25 35/1/35 36/1/36 26/1/26 
f 26/1/26 36/1/36 37/1/37 27/1/27 
f 27/1/27 37/1/37 38/1/38 28/1/28 
f 28/4/28 38/11/38 39/12/39 29/5/29 
f 29/5/29 39/12/39 40/13/40 30/7/30 
f 30/7/30 40/13/40 41/14/41 31/9/31 
f 42/1/42 43/2/43 44/2/44 45/1/45 
f 45/1/45 44/2/44 46/2/46 47/1/47 
f 47/1/47 46/2/46 48/2/48 49/1/49 
f 49/1/49 48/2/48 50/2/50 51/1/51 
f 51/1/51 50/2/50 52/1/52 
f 53/1/53 54/2/54 55/2/55 56/1/56 
f 56/15/56 55/16/55 57/17/57 58/18/58 
f 58/18/58 57/17/57 59/19/59 60/20/60 
f 60/20/60 59/19/59 61/21/61 62/22/62 
s off
f 63/1/63 64/1/64 65/1/65 
f 66/1/66 67/2/67 68/1/68 64/1/64 
f 69/1/69 63/1/63 65/1/65 70/1/70 
f 67/2/67 71/1/71 68/1/68 
f 72/2/72 73/2/73 74/1/74 71/1/71 
f 73/2/73 75/1/75 74/1/74 
f 76/2/76 77/1/77 78/1/78 75/1/75 
f 77/1/77 79/1/79 78/1/78 
f 80/1/80 81/1/81 79/1/79 
s 1
f 82/23/82 63/24/63 69/25/69 
f 66/26/66 63/24/63 82/23/82 
f 80/1/80 77/1/77 83/1/83 
f 83/1/83 77/1/77 76/1/76 
f 76/1/76 73/1/73 84/1/84 
f 84/1/84 73/1/73 72/1/72 
f 72/1/72 67/1/67 85/1/85 
f 85/27/85 67/28/67 66/26/66 
f 86/1/86 81/1/81 80/1/80 87/1/87 
f 88/1/88 86/1/86 87/1/87 89/1/89 
f 43/2/43 88/1/88 89/1/89 44/2/44 
f 90/1/90 33/1/33 32/1/32 91/1/91 
f 45/1/45 90/1/90 91/1/91 42/1/42 
f 87/1/87 80/1/80 83/1/83 92/1/92 
f 89/1/89 87/1/87 92/1/92 93/1/93 
f 44/2/44 89/1/89 93/1/93 46/2/46 
f 94/1/94 34/1/34 33/1/33 90/1/90 
f 47/1/47 94/1/94 90/1/90 45/1/45 
f 92/1/92 83/1/83 76/1/76 95/1/95 
f 93/1/93 92/1/92 95/1/95 96/1/96 
f 46/2/46 93/1/93 96/1/96 48/2/48 
f 97/1/97 35/1/35 34/1/34 94/1/94 
f 49/1/49 97/1/97 94/1/94 47/1/47 
f 95/1/95 76/1/76 84/1/84 98/1/98 
f 96/1/96 95/1/95 98/1/98 99/1/99 
f 48/2/48 96/1/96 99/1/99 50/2/50 
f 100/1/100 36/1/36 35/1/35 97/1/97 
f 51/1/51 101/1/101 49/1/49 
f 98/1/98 84/1/84 72/1/72 102/1/102 
f 99/1/99 98/1/98 102/1/102 103/1/103 
f 50/2/50 99/1/99 103/1/103 54/2/54 
f 104/1/104 37/1/37 105/1/105 
f 106/1/106 107/1/107 108/1/108 
f 102/1/102 72/1/72 85/1/85 109/1/109 
f 103/1/103 102/1/102 109/1/109 110/1/110 
f 54/2/54 103/1/103 110/1/110 55/2/55 
f 111/1/111 38/1/38 37/1/37 104/1/104 
f 56/1/56 112/1/112 53/1/53 
f 109/29/109 85/27/85 66/26/66 113/30/113 
f 110/31/110 109/29/109 113/30/113 114/32/114 
f 55/16/55 110/31/110 114/32/114 57/17/57 
f 115/33/115 39/12/39 38/11/38 111/34/111 
f 58/18/58 115/33/115 111/34/111 56/15/56 
f 113/30/113 66/26/66 82/23/82 116/35/116 
f 114/32/114 113/30/113 116/35/116 117/36/117 
f 57/17/57 114/32/114 117/36/117 59/19/59 
f 118/37/118 40/13/40 39/12/39 115/33/115 
f 60/20/60 118/37/118 115/33/115 58/18/58 
f 116/35/116 82/23/82 69/25/69 119/38/119 
f 117/36/117 116/35/116 119/38/119 120/39/120 
f 59/19/59 117/36/117 120/39/120 61/21/61 
f 121/40/121 41/14/41 40/13/40 118/37/118 
f 62/22/62 121/40/121 118/37/118 60/20/60 
s off
f 53/1/53 112/1/112 106/1/106 122/1/122 
f 104/1/104 105/1/105 123/2/123 124/1/124 
f 100/1/100 101/1/101 125/1/125 126/1/126 
f 51/1/51 52/1/52 108/1/108 127/1/127 
s 1
f 125/1/125 127/1/127 108/1/108 
f 123/2/123 126/1/126 125/2/125 
f 106/2/106 124/1/124 123/2/123 
f 108/1/108 122/1/122 106/1/106 
s off
f 112/1/112 104/1/104 124/1/124 106/1/106 
f 105/1/105 100/1/100 126/1/126 123/2/123 
f 101/1/101 51/1/51 127/1/127 125/1/125 
f 52/1/52 53/1/53 122/1/122 108/1/108 
s 1
f 111/1/111 104/1/104 112/1/112 
f 56/1/56 111/1/111 112/1/112 
f 37/1/37 36/1/36 105/1/105 
f 36/1/36 100/1/100 105/1/105 
f 101/1/101 100/1/100 97/1/97 
f 101/1/101 97/1/97 49/1/49 
f 50/2/50 54/2/54 52/1/52 
f 54/2/54 53/1/53 52/1/52 
f 123/2/123 125/2/125 107/2/107 
f 106/2/106 123/2/123 107/2/107 
f 125/1/125 108/1/108 107/1/107 
s off
f 63/1/63 66/1/66 64/1/64 
f 77/1/77 80/1/80 79/1/79 
f 81/1/81 128/1/128 79/1/79 
f 73/2/73 76/2/76 75/1/75 
f 67/2/67 72/2/72 71/1/71 
s 1
f 1/1/1 129/1/129 2/1/2 
f 1/1/1 130/1/130 129/1/129 
f 1/1/1 131/1/131 130/1/130 
f 1/1/1 132/1/132 131/1/131 
f 1/1/1 133/1/133 132/1/132 
f 1/1/1 134/1/134 133/1/133 
f 1/1/1 135/1/135 134/1/134 
f 1/1/1 136/1/136 135/1/135 
f 1/1/1 11/1/11 136/1/136 
f 2/1/2 129/1/129 137/2/137 12/2/12 
f 129/1/129 130/1/130 138/2/138 137/2/137 
f 130/1/130 131/1/131 139/1/139 138/2/138 
f 131/1/131 132/1/132 140/1/140 139/1/139 
f 132/1/132 133/1/133 141/1/141 140/1/140 
f 133/1/133 134/1/134 142/1/142 141/1/141 
f 134/1/134 135/1/135 143/1/143 142/1/142 
f 135/1/135 136/1/136 144/1/144 143/1/143 
f 136/1/136 11/1/11 21/1/21 144/1/144 
f 12/1/12 137/1/137 145/1/145 22/1/22 
f 137/1/137 138/1/138 146/1/146 145/1/145 
f 138/1/138 139/1/139 147/1/147 146/1/146 
f 139/1/139 140/1/140 148/1/148 147/1/147 
f 140/1/140 141/1/141 149/1/149 148/1/148 
f 141/1/141 142/1/142 150/1/150 149/1/149 
f 142/41/142 143/42/143 151/43/151 150/44/150 
f 143/42/143 144/45/144 152/46/152 151/43/151 
f 144/45/144 21/10/21 31/9/31 152/46/152 
f 22/1/22 145/1/145 153/1/153 32/1/32 
f 145/1/145 146/1/146 154/1/154 153/1/153 
f 146/1/146 147/1/147 155/1/155 154/1/154 
f 147/1/147 148/1/148 156/1/156 155/1/155 
f 148/1/148 149/1/149 157/1/157 156/1/156 
f 149/1/149 150/1/150 158/1/158 157/1/157 
f 150/44/150 151/43/151 159/47/159 158/48/158 
f 151/43/151 152/46/152 160/49/160 159/47/159 
f 152/46/152 31/9/31 41/14/41 160/49/160 
f 42/1/42 161/1/161 162/2/162 43/2/43 
f 161/1/161 163/1/163 164/2/164 162/2/162 
f 163/1/163 165/1/165 166/2/166 164/2/164 
f 165/1/165 167/1/167 168/2/168 166/2/166 
f 167/1/167 169/1/169 168/2/168 
f 170/1/170 171/1/171 172/2/172 173/2/173 
f 171/50/171 174/51/174 175/52/175 172/53/172 
f 174/51/174 176/54/176 177/55/177 175/52/175 
f 176/54/176 62/22/62 61/21/61 177/55/177 
s off
f 178/1/178 179/1/179 180/1/180 
f 181/1/181 180/1/180 182/1/182 183/1/183 
f 69/1/69 70/1/70 179/1/179 178/1/178 
f 183/1/183 182/1/182 184/1/184 
f 185/1/185 184/1/184 186/1/186 187/1/187 
f 187/1/187 186/1/186 188/1/188 
f 189/1/189 188/1/188 190/1/190 191/1/191 
f 191/1/191 190/1/190 192/1/192 
f 193/1/193 192/1/192 81/1/81 
s 1
f 194/56/194 69/25/69 178/57/178 
f 181/58/181 194/56/194 178/57/178 
f 193/1/193 195/1/195 191/1/191 
f 195/1/195 189/1/189 191/1/191 
f 189/1/189 196/1/196 187/1/187 
f 196/1/196 185/1/185 187/1/187 
f 185/1/185 197/1/197 183/1/183 
f 197/59/197 181/58/181 183/60/183 
f 86/1/86 198/1/198 193/1/193 81/1/81 
f 88/1/88 199/1/199 198/1/198 86/1/86 
f 43/2/43 162/2/162 199/1/199 88/1/88 
f 200/1/200 91/1/91 32/1/32 153/1/153 
f 161/1/161 42/1/42 91/1/91 200/1/200 
f 198/1/198 201/1/201 195/1/195 193/1/193 
f 199/1/199 202/1/202 201/1/201 198/1/198 
f 162/2/162 164/2/164 202/1/202 199/1/199 
f 203/1/203 200/1/200 153/1/153 154/1/154 
f 163/1/163 161/1/161 200/1/200 203/1/203 
f 201/1/201 204/1/204 189/1/189 195/1/195 
f 202/1/202 205/1/205 204/1/204 201/1/201 
f 164/2/164 166/2/166 205/1/205 202/1/202 
f 206/1/206 203/1/203 154/1/154 155/1/155 
f 165/1/165 163/1/163 203/1/203 206/1/206 
f 204/1/204 207/1/207 196/1/196 189/1/189 
f 205/1/205 208/1/208 207/1/207 204/1/204 
f 166/2/166 168/2/168 208/1/208 205/1/205 
f 209/1/209 206/1/206 155/1/155 156/1/156 
f 167/1/167 165/1/165 210/1/210 
f 207/1/207 211/1/211 185/1/185 196/1/196 
f 208/1/208 212/1/212 211/1/211 207/1/207 
f 168/2/168 173/2/173 212/1/212 208/1/208 
f 213/1/213 214/1/214 157/1/157 
f 215/1/215 216/1/216 217/1/217 
f 211/1/211 218/1/218 197/1/197 185/1/185 
f 212/1/212 219/1/219 218/1/218 211/1/211 
f 173/2/173 172/2/172 219/1/219 212/1/212 
f 220/1/220 213/1/213 157/1/157 158/1/158 
f 171/1/171 170/1/170 221/1/221 
f 218/61/218 222/62/222 181/58/181 197/59/197 
f 219/63/219 223/64/223 222/62/222 218/61/218 
f 172/53/172 175/52/175 223/64/223 219/63/219 
f 224/65/224 220/66/220 158/48/158 159/47/159 
f 174/51/174 171/50/171 220/66/220 224/65/224 
f 222/62/222 225/67/225 194/56/194 181/58/181 
f 223/64/223 226/68/226 225/67/225 222/62/222 
f 175/52/175 177/55/177 226/68/226 223/64/223 
f 227/69/227 224/65/224 159/47/159 160/49/160 
f 176/54/176 174/51/174 224/65/224 227/69/227 
f 225/67/225 119/38/119 69/25/69 194/56/194 
f 226/68/226 120/39/120 119/38/119 225/67/225 
f 177/55/177 61/21/61 120/39/120 226/68/226 
f 121/40/121 227/69/227 160/49/160 41/14/41 
f 62/22/62 176/54/176 227/69/227 121/40/121 
s off
f 170/1/170 228/1/228 215/1/215 221/1/221 
f 213/1/213 229/1/229 230/2/230 214/1/214 
f 209/2/209 231/1/231 232/1/232 210/2/210 
f 167/1/167 233/1/233 216/1/216 169/1/169 
s 1
f 232/1/232 216/1/216 233/1/233 
f 230/2/230 232/2/232 231/1/231 
f 215/2/215 230/2/230 229/1/229 
f 216/1/216 215/1/215 228/1/228 
s off
f 221/1/221 215/1/215 229/1/229 213/2/213 
f 214/1/214 230/2/230 231/1/231 209/1/209 
f 210/2/210 232/1/232 233/1/233 167/1/167 
f 169/1/169 216/1/216 228/1/228 170/1/170 
s 1
f 220/1/220 221/1/221 213/1/213 
f 171/1/171 221/1/221 220/1/220 
f 157/1/157 214/1/214 156/1/156 
f 156/1/156 214/1/214 209/1/209 
f 210/1/210 206/1/206 209/1/209 
f 210/1/210 165/1/165 206/1/206 
f 168/2/168 169/1/169 173/2/173 
f 173/2/173 169/1/169 170/1/170 
f 230/2/230 217/2/217 232/2/232 
f 215/2/215 217/2/217 230/2/230 
f 232/1/232 217/1/217 216/1/216 
s off
f 178/1/178 180/1/180 181/1/181 
f 191/1/191 192/1/192 193/1/193 
f 81/1/81 192/1/192 128/1/128 
f 187/1/187 188/1/188 189/1/189 
f 183/1/183 184/1/184 185/1/185 
f 65/1/65 64/1/64 68/1/68 71/1/71 74/1/74 75/1/75 78/1/78 79/1/79 128/1/128 192/1/192 190/1/190 188/1/188 186/1/186 184/1/184 182/1/182 180/1/180 179/1/179 70/1/70 
# 177 polygons - 94 triangles

